<?xml version="1.0" standalone="no"?>
<!DOCTYPE svg PUBLIC "-//W3C//DTD SVG 1.1//EN" 
"http://www.w3.org/Graphics/SVG/1.1/DTD/svg11.dtd">
<svg xmlns="http://www.w3.org/2000/svg" version="1.1" width="366" height="467">
<path d="M 312 176 L 312 466 L 348 466 L 348 176 Z" fill="black" stroke="none"/>
<path d="M 329 0 L 328 1 L 326 1 L 325 2 L 322 2 L 321 3 L 320 3 L 319 4 L 317 4 L 316 5 L 313 5 L 312 6 L 310 6 L 309 7 L 306 7 L 305 8 L 303 8 L 302 9 L 299 9 L 298 10 L 295 10 L 294 11 L 291 11 L 289 13 L 286 13 L 285 14 L 284 14 L 283 15 L 281 15 L 280 16 L 277 16 L 276 17 L 274 17 L 273 18 L 271 18 L 270 19 L 269 19 L 268 20 L 267 20 L 266 21 L 265 21 L 264 22 L 262 22 L 261 23 L 260 23 L 259 24 L 257 24 L 256 25 L 254 25 L 253 26 L 252 26 L 251 27 L 249 27 L 248 28 L 247 28 L 245 30 L 243 30 L 242 31 L 241 31 L 240 32 L 239 32 L 238 33 L 237 33 L 236 34 L 234 34 L 233 35 L 232 35 L 231 36 L 230 36 L 228 38 L 227 38 L 226 39 L 225 39 L 224 40 L 223 40 L 222 41 L 221 41 L 220 42 L 219 42 L 218 43 L 217 43 L 216 44 L 215 44 L 214 45 L 213 45 L 211 47 L 210 47 L 209 48 L 208 48 L 207 49 L 206 49 L 204 51 L 203 51 L 202 52 L 201 52 L 199 54 L 198 54 L 196 56 L 195 56 L 192 59 L 191 59 L 190 60 L 189 60 L 184 65 L 183 65 L 181 67 L 180 67 L 177 70 L 176 70 L 176 71 L 175 72 L 174 72 L 169 77 L 168 77 L 155 90 L 155 91 L 150 96 L 150 97 L 147 100 L 147 101 L 143 105 L 143 106 L 142 107 L 142 108 L 139 111 L 139 112 L 138 113 L 138 114 L 136 116 L 136 117 L 135 118 L 135 119 L 133 121 L 133 123 L 132 124 L 132 125 L 131 126 L 131 127 L 130 128 L 130 129 L 129 130 L 129 132 L 128 133 L 128 135 L 127 136 L 127 138 L 126 139 L 126 141 L 125 142 L 125 145 L 124 146 L 124 149 L 123 150 L 123 154 L 122 155 L 122 160 L 121 161 L 121 185 L 122 186 L 122 190 L 123 191 L 122 192 L 122 193 L 123 194 L 123 195 L 124 196 L 124 197 L 126 197 L 127 198 L 128 198 L 129 197 L 131 197 L 132 198 L 133 198 L 134 197 L 137 197 L 138 196 L 139 196 L 140 195 L 140 194 L 141 193 L 141 192 L 142 191 L 142 190 L 144 188 L 144 187 L 146 185 L 146 184 L 149 181 L 149 180 L 159 170 L 160 170 L 166 164 L 167 164 L 169 162 L 170 162 L 172 160 L 173 160 L 177 156 L 178 156 L 179 155 L 180 155 L 181 154 L 182 154 L 183 153 L 184 153 L 185 152 L 186 152 L 188 150 L 190 150 L 192 148 L 193 148 L 194 147 L 195 147 L 196 146 L 197 146 L 198 145 L 199 145 L 200 144 L 202 144 L 203 143 L 205 143 L 207 141 L 210 141 L 212 139 L 214 139 L 215 138 L 216 138 L 217 137 L 219 137 L 220 136 L 223 136 L 224 135 L 225 135 L 226 134 L 229 134 L 230 133 L 232 133 L 233 132 L 234 132 L 235 131 L 238 131 L 239 132 L 239 133 L 238 134 L 237 134 L 232 139 L 232 140 L 228 144 L 228 145 L 226 147 L 225 147 L 225 148 L 224 149 L 224 150 L 222 152 L 222 153 L 221 154 L 221 155 L 220 156 L 220 157 L 219 158 L 219 159 L 218 160 L 218 161 L 217 162 L 217 164 L 216 165 L 216 166 L 215 167 L 215 171 L 214 172 L 214 174 L 213 175 L 213 178 L 212 179 L 212 185 L 211 186 L 211 197 L 210 198 L 210 205 L 211 206 L 211 219 L 212 220 L 212 227 L 213 228 L 213 233 L 214 234 L 214 238 L 215 239 L 215 243 L 216 244 L 216 247 L 217 248 L 217 251 L 218 252 L 218 254 L 219 255 L 219 257 L 220 258 L 220 261 L 221 262 L 221 264 L 222 265 L 222 268 L 223 269 L 223 271 L 224 272 L 224 275 L 225 276 L 225 279 L 226 280 L 226 283 L 227 284 L 227 290 L 228 291 L 228 299 L 227 300 L 227 305 L 226 306 L 226 307 L 225 308 L 225 309 L 223 311 L 223 312 L 221 314 L 220 314 L 218 316 L 216 316 L 215 317 L 214 317 L 213 318 L 211 318 L 210 319 L 192 319 L 191 318 L 187 318 L 186 317 L 182 317 L 181 316 L 179 316 L 178 315 L 176 315 L 175 314 L 172 314 L 171 313 L 172 312 L 173 312 L 173 311 L 179 305 L 179 304 L 182 301 L 182 300 L 185 297 L 185 296 L 186 295 L 186 294 L 188 292 L 188 291 L 189 290 L 189 289 L 190 288 L 190 287 L 191 286 L 191 284 L 192 283 L 192 282 L 193 281 L 193 280 L 194 279 L 194 278 L 195 277 L 195 273 L 196 272 L 196 268 L 197 267 L 197 262 L 198 261 L 198 245 L 197 244 L 197 241 L 196 240 L 196 236 L 195 235 L 195 233 L 194 232 L 194 231 L 193 230 L 193 228 L 190 225 L 190 224 L 180 214 L 179 214 L 178 213 L 177 213 L 176 212 L 175 212 L 174 211 L 173 211 L 172 210 L 171 210 L 170 209 L 168 209 L 167 208 L 166 208 L 165 207 L 162 207 L 161 206 L 157 206 L 156 205 L 149 205 L 148 204 L 2 204 L 1 205 L 1 206 L 0 207 L 0 222 L 1 223 L 1 224 L 2 225 L 4 225 L 5 226 L 14 226 L 15 227 L 18 227 L 19 228 L 21 228 L 22 229 L 23 229 L 26 232 L 26 233 L 27 234 L 27 235 L 28 236 L 28 238 L 29 239 L 29 244 L 30 245 L 30 426 L 29 427 L 29 431 L 28 432 L 28 434 L 27 435 L 27 436 L 26 437 L 26 438 L 25 439 L 25 440 L 23 442 L 22 442 L 21 443 L 19 443 L 18 444 L 13 444 L 12 445 L 3 445 L 2 446 L 1 446 L 1 447 L 0 448 L 0 463 L 1 464 L 1 465 L 2 466 L 110 466 L 112 464 L 112 462 L 113 461 L 113 450 L 112 449 L 112 448 L 111 447 L 111 446 L 110 446 L 109 445 L 103 445 L 102 444 L 97 444 L 96 443 L 94 443 L 93 442 L 92 442 L 86 436 L 86 435 L 85 434 L 85 433 L 84 432 L 84 428 L 83 427 L 83 354 L 84 353 L 85 354 L 85 355 L 87 357 L 87 358 L 88 359 L 88 360 L 89 360 L 90 361 L 90 363 L 93 366 L 93 367 L 94 368 L 94 369 L 95 370 L 95 371 L 99 375 L 99 376 L 100 377 L 100 378 L 102 380 L 102 381 L 104 383 L 104 384 L 107 387 L 107 388 L 108 389 L 108 390 L 109 391 L 109 392 L 111 394 L 111 395 L 112 396 L 112 397 L 115 400 L 115 401 L 117 403 L 117 404 L 118 405 L 118 406 L 120 408 L 120 409 L 122 411 L 122 412 L 124 414 L 124 415 L 127 418 L 127 419 L 128 420 L 128 421 L 129 422 L 129 423 L 131 425 L 131 426 L 134 429 L 134 430 L 135 431 L 135 432 L 137 434 L 137 435 L 139 437 L 139 438 L 141 440 L 141 441 L 143 443 L 143 444 L 145 446 L 145 448 L 150 453 L 150 454 L 151 454 L 152 455 L 152 456 L 156 460 L 157 460 L 158 461 L 159 461 L 161 463 L 162 463 L 164 465 L 165 465 L 166 466 L 231 466 L 234 463 L 234 450 L 233 449 L 233 447 L 232 446 L 231 446 L 230 445 L 225 445 L 224 444 L 222 444 L 221 443 L 218 443 L 216 441 L 215 441 L 214 440 L 213 440 L 210 437 L 209 437 L 205 433 L 204 433 L 201 430 L 201 429 L 200 428 L 199 428 L 198 427 L 198 426 L 197 426 L 195 424 L 195 423 L 190 418 L 190 417 L 186 413 L 186 412 L 185 411 L 185 410 L 182 407 L 182 406 L 180 404 L 180 403 L 178 401 L 178 400 L 176 398 L 176 397 L 174 395 L 174 394 L 172 392 L 172 391 L 170 389 L 170 388 L 169 387 L 169 386 L 166 383 L 166 382 L 164 380 L 164 379 L 163 378 L 163 377 L 161 375 L 161 374 L 159 372 L 159 371 L 158 370 L 158 369 L 155 366 L 155 365 L 153 363 L 153 362 L 152 361 L 152 360 L 150 358 L 150 357 L 147 354 L 147 353 L 146 352 L 146 351 L 144 349 L 144 348 L 142 346 L 142 345 L 141 344 L 141 343 L 138 340 L 138 339 L 140 337 L 141 337 L 143 335 L 144 335 L 146 333 L 147 333 L 149 331 L 150 331 L 152 329 L 153 329 L 157 325 L 158 325 L 160 323 L 163 326 L 164 326 L 165 327 L 167 327 L 169 329 L 170 329 L 171 330 L 172 330 L 173 331 L 174 331 L 175 332 L 177 332 L 178 333 L 179 333 L 180 334 L 182 334 L 183 335 L 184 335 L 185 336 L 186 336 L 187 337 L 188 337 L 189 338 L 191 338 L 192 339 L 194 339 L 195 340 L 198 340 L 199 341 L 203 341 L 204 342 L 206 342 L 207 343 L 213 343 L 214 344 L 217 344 L 218 345 L 241 345 L 242 344 L 245 344 L 246 343 L 250 343 L 251 342 L 253 342 L 254 341 L 256 341 L 257 340 L 258 340 L 259 339 L 261 339 L 262 338 L 263 338 L 264 337 L 265 337 L 265 336 L 266 335 L 267 335 L 269 333 L 270 333 L 273 330 L 274 330 L 274 329 L 277 326 L 277 325 L 281 321 L 281 320 L 283 318 L 283 317 L 284 316 L 284 315 L 285 314 L 285 313 L 286 312 L 286 311 L 287 310 L 287 309 L 288 308 L 288 306 L 289 305 L 289 302 L 290 301 L 290 298 L 291 297 L 291 291 L 292 290 L 292 263 L 291 262 L 291 253 L 290 252 L 290 248 L 289 247 L 289 242 L 288 241 L 288 238 L 287 237 L 287 233 L 286 232 L 286 230 L 285 229 L 285 223 L 284 222 L 284 216 L 283 215 L 283 213 L 282 212 L 282 207 L 281 206 L 281 202 L 280 201 L 280 194 L 279 193 L 279 181 L 278 180 L 278 178 L 277 177 L 277 163 L 276 162 L 276 149 L 275 148 L 275 131 L 276 130 L 276 121 L 277 120 L 277 116 L 278 115 L 278 114 L 279 113 L 279 104 L 280 103 L 280 99 L 281 98 L 281 95 L 282 94 L 282 91 L 283 90 L 283 88 L 284 87 L 284 85 L 285 84 L 285 82 L 286 81 L 286 80 L 287 79 L 287 77 L 288 76 L 288 75 L 289 74 L 289 72 L 290 71 L 290 70 L 291 69 L 291 68 L 292 67 L 292 65 L 293 64 L 293 63 L 294 62 L 294 61 L 296 59 L 296 58 L 297 57 L 297 56 L 298 55 L 298 54 L 300 52 L 300 51 L 302 49 L 302 48 L 303 47 L 303 46 L 304 45 L 305 45 L 305 44 L 308 41 L 308 40 L 318 30 L 318 29 L 321 26 L 322 26 L 326 22 L 327 22 L 331 18 L 332 18 L 333 17 L 334 17 L 336 15 L 337 15 L 339 13 L 341 13 L 343 11 L 344 11 L 345 10 L 346 10 L 348 8 L 348 4 L 347 3 L 347 2 L 346 1 L 344 1 L 343 0 Z" fill="black" stroke="none"/>
</svg>